<svg id="svg" version="1.1" xmlns="http://www.w3.org/2000/svg" xmlns:xlink="http://www.w3.org/1999/xlink" width="400" height="500.63424947145876" viewBox="0, 0, 400,500.63424947145876"><g id="svgg"><path id="path0" d="M198.000 66.774 C 193.947 68.011,191.079 70.881,188.637 76.142 C 176.969 101.282,160.692 119.402,130.600 140.752 C 93.875 166.808,82.176 184.472,82.221 213.800 C 82.269 245.122,101.154 271.377,130.697 281.197 C 141.941 284.934,139.987 284.859,223.200 284.721 L 295.800 284.600 298.000 283.545 C 308.727 278.400,308.312 262.517,297.344 258.413 C 295.292 257.646,294.278 257.600,279.249 257.600 C 270.493 257.600,259.790 257.481,255.464 257.337 L 247.600 257.073 247.600 252.196 C 247.600 246.026,247.816 245.460,251.395 242.244 C 258.464 235.892,258.657 227.776,251.896 221.133 C 246.000 215.340,246.016 209.936,251.948 204.062 C 258.587 197.489,258.508 190.167,251.723 183.236 C 246.000 177.389,246.062 172.260,251.927 166.402 C 259.575 158.763,257.973 147.845,248.568 143.508 C 246.617 142.608,246.410 142.598,224.800 142.400 L 203.000 142.200 200.800 141.162 C 192.061 137.040,190.402 127.567,196.879 118.766 C 204.995 107.737,214.478 89.315,215.717 82.169 C 217.409 72.416,207.558 63.856,198.000 66.774 " stroke="none" fill="#fbfbfb" fill-rule="evenodd"></path><path id="path1" d="M208.084 66.684 C 207.290 66.837,207.489 67.067,209.590 68.425 C 214.147 71.370,216.626 76.930,215.717 82.169 C 214.478 89.315,204.995 107.737,196.879 118.766 C 191.480 126.103,191.492 132.977,196.913 138.428 C 199.882 141.414,202.123 142.171,208.400 142.308 L 213.800 142.426 211.490 141.453 C 205.949 139.121,203.000 134.726,203.000 128.800 C 203.000 124.624,203.359 123.872,210.169 113.771 C 220.800 98.002,227.003 82.969,225.432 76.779 C 223.487 69.111,216.534 65.066,208.084 66.684 M247.000 142.932 C 257.608 146.435,260.088 158.251,251.927 166.402 C 246.062 172.260,246.000 177.389,251.723 183.236 C 258.508 190.167,258.587 197.489,251.948 204.062 C 246.016 209.936,246.000 215.340,251.896 221.133 C 258.657 227.776,258.464 235.892,251.395 242.244 C 247.811 245.464,247.600 246.021,247.600 252.260 L 247.600 257.200 252.600 257.200 L 257.600 257.200 257.600 252.187 C 257.600 245.996,257.857 245.334,261.517 242.093 C 268.490 235.917,268.553 226.413,261.657 220.890 C 256.344 216.634,256.317 208.584,261.603 204.397 C 268.422 198.997,268.528 189.999,261.851 183.386 C 255.997 177.589,256.052 171.894,262.017 166.215 C 269.716 158.886,267.815 147.499,258.200 143.346 C 256.999 142.827,255.204 142.623,251.000 142.529 C 245.917 142.415,245.548 142.452,247.000 142.932 M297.457 258.415 C 309.221 263.039,308.385 280.221,296.200 284.266 C 294.743 284.749,295.100 284.786,300.200 284.678 C 310.394 284.463,315.786 279.734,315.796 271.000 C 315.805 262.508,310.584 257.878,300.800 257.703 L 295.400 257.607 297.457 258.415 " stroke="none" fill="#06fafb" fill-rule="evenodd"></path><path id="path2" d="M192.400 0.245 C 180.864 0.783,169.714 2.029,160.200 3.842 C 154.023 5.020,146.281 6.849,146.000 7.199 C 145.890 7.335,144.360 7.859,142.600 8.363 C 134.296 10.741,124.737 14.022,123.767 14.828 C 123.511 15.040,121.434 16.001,119.151 16.965 C 110.329 20.688,108.195 21.665,108.060 22.046 C 107.983 22.262,106.288 23.246,104.294 24.231 C 100.273 26.217,97.512 27.843,92.304 31.287 C 90.381 32.559,88.706 33.600,88.582 33.600 C 88.219 33.600,83.687 36.748,83.537 37.105 C 83.461 37.283,82.204 38.233,80.743 39.215 C 68.935 47.150,46.962 69.044,39.389 80.420 C 38.430 81.861,37.102 83.661,36.440 84.420 C 35.777 85.179,34.822 86.487,34.317 87.327 C 33.813 88.168,32.280 90.561,30.912 92.647 C 28.354 96.545,24.000 104.032,24.000 104.532 C 24.000 104.687,23.214 106.116,22.254 107.707 C 20.767 110.170,18.508 115.018,15.688 121.800 C 15.322 122.680,14.909 123.490,14.771 123.600 C 14.144 124.099,9.617 137.331,8.195 142.821 C 7.827 144.238,7.383 145.488,7.208 145.599 C 6.046 146.331,2.325 166.524,0.979 179.400 C -1.389 202.047,1.848 242.031,7.003 253.800 C 7.292 254.460,8.458 258.060,9.594 261.800 C 12.646 271.848,16.879 282.160,21.580 291.000 C 22.867 293.420,24.642 296.774,25.525 298.452 C 27.255 301.742,29.148 304.878,29.600 305.200 C 29.754 305.310,30.115 305.850,30.402 306.400 C 31.368 308.252,36.115 315.389,37.265 316.717 C 37.892 317.441,39.241 319.302,40.262 320.851 C 41.282 322.401,43.098 324.688,44.297 325.935 C 45.496 327.181,46.601 328.523,46.754 328.918 C 47.329 330.409,63.190 346.754,66.390 349.154 C 67.156 349.730,68.715 351.124,69.854 352.254 C 70.993 353.383,72.887 354.952,74.062 355.740 C 75.238 356.528,77.190 358.079,78.400 359.185 C 79.610 360.292,80.757 361.198,80.948 361.198 C 81.140 361.199,83.120 362.520,85.348 364.134 C 90.200 367.647,94.213 370.229,97.200 371.759 C 98.410 372.379,99.760 373.207,100.200 373.599 C 100.993 374.304,110.200 379.011,112.700 379.989 C 113.415 380.268,114.000 380.624,114.000 380.780 C 114.000 380.936,114.855 381.441,115.900 381.903 C 119.667 383.566,125.632 386.000,125.944 386.000 C 126.270 386.000,130.449 387.622,132.600 388.583 C 135.825 390.024,148.192 393.493,155.600 395.033 C 157.470 395.422,159.090 395.866,159.200 396.019 C 159.728 396.753,176.271 398.932,186.800 399.653 C 195.048 400.219,213.259 399.882,221.400 399.014 C 228.516 398.255,240.033 396.450,240.600 396.006 C 240.820 395.834,241.630 395.567,242.400 395.413 C 245.760 394.743,254.435 392.678,257.000 391.938 C 261.464 390.650,267.364 388.719,267.800 388.404 C 268.020 388.245,269.550 387.627,271.200 387.031 C 273.940 386.040,279.869 383.702,283.759 382.077 C 284.616 381.719,285.516 381.229,285.759 380.989 C 286.001 380.749,289.079 379.159,292.597 377.455 C 296.116 375.751,299.356 374.024,299.797 373.618 C 300.239 373.211,301.680 372.306,303.000 371.606 C 305.380 370.344,311.616 366.437,312.000 365.967 C 312.110 365.832,314.270 364.326,316.800 362.619 C 319.330 360.913,321.939 358.972,322.598 358.307 C 323.257 357.641,324.787 356.422,325.998 355.598 C 327.209 354.773,329.321 352.996,330.690 351.649 C 332.060 350.302,333.320 349.194,333.490 349.187 C 334.426 349.149,350.783 332.274,353.252 328.800 C 353.955 327.810,355.211 326.314,356.043 325.476 C 356.874 324.637,358.222 322.946,359.037 321.718 C 359.852 320.490,361.265 318.566,362.175 317.442 C 363.941 315.265,369.600 306.729,369.600 306.243 C 369.600 306.084,370.127 305.289,370.772 304.477 C 373.603 300.909,384.800 278.671,384.800 276.616 C 384.800 276.314,384.953 276.007,385.140 275.933 C 385.760 275.690,388.976 266.735,391.221 259.000 C 391.732 257.240,392.294 255.604,392.470 255.365 C 392.898 254.783,395.347 244.498,396.367 239.000 C 401.131 213.312,401.057 185.957,396.153 159.800 C 395.226 154.856,392.722 144.623,392.385 144.400 C 392.219 144.290,391.871 143.390,391.611 142.400 C 390.073 136.525,386.104 125.141,385.016 123.480 C 384.699 122.996,383.996 121.430,383.454 120.000 C 381.676 115.305,378.015 107.600,377.563 107.600 C 377.423 107.600,376.805 106.475,376.188 105.100 C 375.571 103.725,374.287 101.280,373.333 99.667 C 372.380 98.054,371.600 96.603,371.600 96.442 C 371.600 96.282,371.273 95.800,370.873 95.371 C 370.076 94.515,367.200 90.120,367.200 89.758 C 367.200 89.366,363.114 83.600,362.836 83.600 C 362.691 83.600,362.234 83.015,361.820 82.300 C 357.769 75.300,340.495 56.443,330.800 48.437 C 329.150 47.074,327.350 45.548,326.800 45.046 C 325.091 43.487,318.894 38.800,318.538 38.798 C 318.352 38.797,317.523 38.174,316.695 37.414 C 315.161 36.005,311.840 33.600,311.428 33.600 C 311.303 33.600,309.166 32.262,306.679 30.627 C 299.462 25.881,287.457 19.579,279.800 16.517 C 277.820 15.725,275.959 14.890,275.665 14.660 C 274.721 13.925,264.926 10.496,259.400 8.966 C 257.420 8.418,255.573 7.891,255.296 7.795 C 255.018 7.700,254.679 7.632,254.541 7.645 C 254.402 7.658,254.179 7.514,254.045 7.325 C 253.534 6.609,239.939 3.677,231.233 2.405 C 220.338 0.813,202.034 -0.205,192.400 0.245 M207.200 66.427 C 215.697 66.186,215.705 66.187,218.163 67.375 C 223.471 69.942,226.986 76.086,226.186 81.400 C 225.128 88.426,217.018 104.649,208.390 117.000 C 203.837 123.518,203.004 125.568,203.290 129.557 C 203.658 134.699,206.571 138.999,211.141 141.141 L 213.400 142.200 235.400 142.400 L 257.400 142.600 259.400 143.590 C 268.251 147.974,269.451 159.464,261.827 166.834 C 256.319 172.160,256.400 177.517,262.076 183.211 C 268.697 189.854,268.634 197.882,261.908 204.483 C 256.373 209.914,256.387 215.453,261.949 220.798 C 269.018 227.591,268.429 237.892,260.667 243.210 C 258.058 244.998,257.738 246.173,257.914 253.300 L 258.000 256.800 274.500 256.834 C 298.526 256.883,305.700 257.211,308.101 258.371 C 319.095 263.681,318.589 279.510,307.281 284.078 L 305.000 285.000 225.800 285.000 L 146.600 285.000 141.424 284.065 C 98.261 276.268,72.420 234.890,84.590 193.060 C 89.040 177.763,97.515 166.385,115.108 152.087 C 120.832 147.435,122.570 146.125,131.400 139.807 C 136.240 136.344,142.000 132.148,144.200 130.483 C 161.918 117.075,177.707 97.881,187.240 78.162 C 191.945 68.429,195.551 65.664,202.800 66.232 C 204.450 66.361,206.430 66.449,207.200 66.427 M20.400 451.601 C 5.716 453.977,-0.888 467.978,8.495 476.838 C 11.782 479.942,13.301 480.514,24.804 482.970 C 32.338 484.579,32.236 487.886,24.650 487.970 C 21.695 488.002,15.174 486.680,13.700 485.750 C 13.205 485.437,12.797 485.321,12.794 485.491 C 12.791 485.661,12.656 485.600,12.494 485.356 C 12.163 484.855,9.845 483.600,9.252 483.600 C 9.039 483.600,8.569 484.489,8.208 485.575 C 7.848 486.661,7.400 487.606,7.214 487.675 C 6.942 487.776,3.600 495.322,3.600 495.836 C 3.600 496.136,6.263 497.337,8.977 498.262 C 17.790 501.267,31.136 501.166,38.200 498.041 C 39.925 497.278,44.000 493.839,44.000 493.145 C 44.000 492.955,44.353 492.447,44.784 492.016 C 46.956 489.844,47.413 482.380,45.596 478.767 C 43.819 475.234,40.280 472.768,35.000 471.383 C 33.460 470.980,32.110 470.529,32.000 470.383 C 31.890 470.237,30.540 469.886,29.000 469.604 C 22.237 468.366,19.914 467.108,21.488 465.535 C 23.705 463.318,31.918 464.161,39.232 467.357 C 39.916 467.656,40.117 467.279,42.404 461.410 C 43.088 459.656,43.939 457.607,44.295 456.857 C 45.944 453.382,30.453 449.975,20.400 451.601 M103.755 451.573 C 90.492 453.689,82.054 464.565,82.923 478.423 C 83.598 489.181,88.699 496.369,97.720 499.273 C 102.645 500.858,112.428 500.660,116.145 498.900 C 119.428 497.345,119.200 497.367,119.200 498.600 L 119.200 499.600 124.600 499.600 L 130.000 499.600 130.000 487.000 L 130.000 474.400 122.811 474.400 L 115.622 474.400 115.511 480.100 L 115.400 485.800 113.800 486.586 C 106.743 490.052,99.610 485.022,99.602 476.573 C 99.591 464.718,109.617 461.285,120.620 469.376 C 120.979 469.640,121.684 469.282,122.983 468.176 C 124.001 467.309,125.385 466.200,126.059 465.711 C 131.436 461.812,131.924 460.159,128.516 457.384 C 122.310 452.328,112.884 450.116,103.755 451.573 M159.898 451.634 C 157.848 452.118,154.433 453.867,153.100 455.118 L 152.000 456.150 152.000 454.275 L 152.000 452.400 144.000 452.400 L 136.000 452.400 136.000 476.000 L 136.000 499.600 144.200 499.600 L 152.400 499.600 152.410 485.900 C 152.423 467.194,153.204 464.927,159.600 465.029 C 165.487 465.122,165.959 466.650,165.983 485.700 L 166.000 499.600 174.200 499.600 L 182.400 499.600 182.400 483.983 C 182.400 463.613,181.839 460.625,177.119 455.867 C 173.130 451.847,166.212 450.146,159.898 451.634 M232.500 451.818 C 229.893 452.520,227.734 453.607,226.300 454.940 L 225.200 455.962 225.200 454.181 L 225.200 452.400 217.000 452.400 L 208.800 452.400 208.800 476.000 L 208.800 499.600 217.200 499.600 L 225.600 499.600 225.602 485.500 C 225.605 470.355,225.731 469.190,227.603 467.058 C 230.463 463.800,236.166 464.411,237.985 468.169 C 238.760 469.770,238.800 470.579,238.800 484.726 L 238.800 499.600 247.231 499.600 L 255.662 499.600 255.502 483.100 C 255.367 469.215,255.235 466.220,254.670 464.200 C 253.908 461.480,252.402 458.000,251.986 458.000 C 251.834 458.000,251.214 457.286,250.608 456.412 C 247.640 452.128,239.252 450.000,232.500 451.818 M280.200 451.762 C 267.300 454.267,259.066 465.146,260.195 478.192 C 261.370 491.771,270.560 499.873,285.286 500.311 C 299.272 500.728,308.499 495.169,312.461 483.940 C 314.144 479.171,313.246 465.200,311.257 465.200 C 311.081 465.200,310.514 464.298,309.998 463.196 C 309.154 461.393,306.899 458.984,302.933 455.647 C 298.799 452.168,287.792 450.287,280.200 451.762 M49.200 458.800 L 49.200 465.200 52.600 465.200 L 56.000 465.200 56.000 476.200 L 56.000 487.200 52.600 487.200 L 49.200 487.200 49.200 493.400 L 49.200 499.600 64.400 499.600 L 79.600 499.600 79.600 493.400 L 79.600 487.200 76.000 487.200 L 72.400 487.200 72.400 476.200 L 72.400 465.200 76.000 465.200 L 79.600 465.200 79.600 458.800 L 79.600 452.400 64.400 452.400 L 49.200 452.400 49.200 458.800 M318.000 468.600 C 318.000 477.551,318.156 484.800,318.349 484.800 C 318.541 484.800,318.807 485.484,318.941 486.320 C 319.599 490.433,323.269 495.516,326.986 497.459 C 334.158 501.209,346.208 501.565,353.004 498.228 L 355.808 496.851 358.604 498.227 C 362.152 499.973,364.519 500.402,370.555 500.393 C 381.917 500.377,387.693 497.405,391.531 489.600 L 393.400 485.800 393.520 469.100 L 393.641 452.400 385.238 452.400 L 376.836 452.400 376.717 467.700 C 376.570 486.627,376.290 487.451,370.123 487.104 C 364.667 486.798,364.420 485.941,364.409 467.300 L 364.400 452.400 355.800 452.400 L 347.200 452.400 347.200 467.274 C 347.200 485.844,346.930 486.782,341.477 487.118 C 335.310 487.497,334.850 486.114,334.822 467.100 L 334.800 452.400 326.400 452.400 L 318.000 452.400 318.000 468.600 M291.049 465.929 C 300.523 470.801,297.340 487.147,286.908 487.191 C 279.660 487.222,275.199 479.960,277.477 471.838 C 279.084 466.114,285.757 463.208,291.049 465.929 " stroke="none" fill="#34049b" fill-rule="evenodd"></path><path id="path3" d="M210.700 66.289 C 211.415 66.378,212.585 66.378,213.300 66.289 C 214.015 66.201,213.430 66.128,212.000 66.128 C 210.570 66.128,209.985 66.201,210.700 66.289 M223.580 72.400 C 224.243 73.390,225.047 75.190,225.366 76.400 C 225.686 77.610,225.959 78.227,225.974 77.771 C 226.020 76.309,224.807 73.376,223.573 71.967 L 222.375 70.600 223.580 72.400 M226.093 80.000 C 226.093 80.770,226.175 81.085,226.276 80.700 C 226.376 80.315,226.376 79.685,226.276 79.300 C 226.175 78.915,226.093 79.230,226.093 80.000 M225.646 82.237 C 225.621 82.698,225.240 84.122,224.799 85.403 C 224.358 86.684,224.070 87.803,224.158 87.891 C 224.461 88.194,226.061 82.811,225.877 82.106 C 225.726 81.529,225.684 81.553,225.646 82.237 M218.310 100.134 C 217.050 102.590,216.300 104.240,216.643 103.800 C 217.404 102.824,220.899 95.966,220.725 95.792 C 220.656 95.723,219.569 97.677,218.310 100.134 M210.655 113.200 C 209.631 114.740,208.878 116.000,208.982 116.000 C 209.085 116.000,209.866 114.965,210.715 113.700 C 212.598 110.899,212.895 110.400,212.682 110.400 C 212.592 110.400,211.680 111.660,210.655 113.200 M203.052 125.700 C 202.354 128.304,203.190 133.592,204.586 135.407 C 204.923 135.845,204.795 135.305,204.300 134.200 C 203.581 132.596,203.404 131.467,203.402 128.500 C 203.400 124.428,203.398 124.411,203.052 125.700 M261.747 145.320 C 262.378 145.862,263.338 146.822,263.880 147.453 L 264.866 148.600 264.017 147.316 C 263.550 146.610,262.590 145.650,261.884 145.183 L 260.600 144.334 261.747 145.320 M260.877 167.459 L 259.000 169.318 261.000 167.591 C 262.100 166.641,263.075 165.804,263.167 165.732 C 263.258 165.659,263.203 165.600,263.043 165.600 C 262.884 165.600,261.909 166.437,260.877 167.459 M257.728 174.800 C 257.728 176.230,257.801 176.815,257.889 176.100 C 257.978 175.385,257.978 174.215,257.889 173.500 C 257.801 172.785,257.728 173.370,257.728 174.800 M260.000 181.696 C 260.000 181.779,261.035 182.724,262.300 183.795 C 263.777 185.046,264.171 185.275,263.400 184.435 C 262.262 183.195,260.000 181.373,260.000 181.696 M261.600 204.457 L 259.400 206.489 261.499 204.808 C 263.339 203.334,264.313 202.373,263.924 202.413 C 263.856 202.420,262.810 203.340,261.600 204.457 M81.693 210.400 C 81.693 211.170,81.775 211.485,81.876 211.100 C 81.976 210.715,81.976 210.085,81.876 209.700 C 81.775 209.315,81.693 209.630,81.693 210.400 M257.724 212.600 C 257.726 213.920,257.801 214.412,257.890 213.693 C 257.979 212.974,257.977 211.894,257.886 211.293 C 257.795 210.692,257.722 211.280,257.724 212.600 M81.693 216.800 C 81.693 217.570,81.775 217.885,81.876 217.500 C 81.976 217.115,81.976 216.485,81.876 216.100 C 81.775 215.715,81.693 216.030,81.693 216.800 M259.720 219.064 C 259.875 219.319,260.939 220.309,262.083 221.264 C 263.227 222.219,264.036 222.791,263.880 222.536 C 263.725 222.281,262.661 221.291,261.517 220.336 C 260.373 219.381,259.564 218.809,259.720 219.064 M261.800 241.877 C 260.368 243.214,260.045 243.625,261.000 242.898 C 262.509 241.749,264.739 239.578,264.370 239.618 C 264.276 239.628,263.120 240.645,261.800 241.877 M257.682 253.500 L 257.600 257.200 275.500 257.104 L 293.400 257.009 275.716 256.900 L 258.031 256.792 257.898 253.296 L 257.765 249.800 257.682 253.500 M297.300 257.497 C 298.785 257.574,301.215 257.574,302.700 257.497 C 304.185 257.420,302.970 257.357,300.000 257.357 C 297.030 257.357,295.815 257.420,297.300 257.497 M308.400 258.820 C 309.787 259.761,310.578 260.035,309.600 259.236 C 309.050 258.786,308.420 258.417,308.200 258.415 C 307.980 258.413,308.070 258.596,308.400 258.820 M314.125 264.368 C 314.600 265.235,315.050 265.884,315.124 265.809 C 315.318 265.616,314.077 263.295,313.634 263.021 C 313.429 262.894,313.650 263.500,314.125 264.368 M315.642 273.800 C 315.548 275.297,313.559 278.994,311.877 280.800 L 310.200 282.600 312.069 280.847 C 314.027 279.011,316.198 274.926,315.874 273.689 C 315.724 273.121,315.684 273.140,315.642 273.800 M185.900 285.100 C 205.975 285.157,238.825 285.157,258.900 285.100 C 278.975 285.043,262.550 284.996,222.400 284.996 C 182.250 284.996,165.825 285.043,185.900 285.100 " stroke="none" fill="#3f5cbc" fill-rule="evenodd"></path><path id="path4" d="M200.700 66.289 C 201.415 66.378,202.585 66.378,203.300 66.289 C 204.015 66.201,203.430 66.128,202.000 66.128 C 200.570 66.128,199.985 66.201,200.700 66.289 M191.898 70.337 C 190.901 71.403,189.796 72.834,189.443 73.517 C 188.413 75.509,188.712 75.573,189.831 73.600 C 190.393 72.610,191.598 71.035,192.509 70.100 C 193.421 69.165,194.064 68.400,193.938 68.400 C 193.812 68.400,192.894 69.272,191.898 70.337 M187.081 78.621 C 186.266 80.267,185.609 81.745,185.620 81.907 C 185.631 82.068,186.362 80.786,187.246 79.059 C 188.129 77.331,188.786 75.853,188.706 75.773 C 188.627 75.693,187.895 76.975,187.081 78.621 M180.953 89.700 C 179.576 92.036,179.486 92.235,180.187 91.400 C 181.000 90.432,181.700 89.200,181.438 89.200 C 181.333 89.200,181.115 89.425,180.953 89.700 M175.715 97.700 C 173.981 99.967,173.066 101.320,173.409 101.113 C 173.881 100.827,176.537 97.200,176.274 97.200 C 176.177 97.200,175.926 97.425,175.715 97.700 M165.979 110.100 C 164.583 111.695,163.945 112.550,164.561 112.000 C 165.794 110.898,168.980 107.200,168.695 107.200 C 168.597 107.200,167.375 108.505,165.979 110.100 M158.792 117.900 L 155.000 121.800 158.900 118.008 C 162.522 114.486,162.982 114.000,162.692 114.000 C 162.633 114.000,160.878 115.755,158.792 117.900 M152.181 124.100 L 150.600 125.800 152.394 124.200 C 153.380 123.320,154.265 122.555,154.361 122.500 C 154.456 122.445,154.360 122.400,154.148 122.400 C 153.936 122.400,153.051 123.165,152.181 124.100 M144.200 130.644 L 142.600 132.076 144.300 130.804 C 145.763 129.710,146.291 129.183,145.900 129.206 C 145.845 129.209,145.080 129.856,144.200 130.644 M134.400 137.642 C 131.260 139.935,130.931 140.450,133.922 138.390 C 136.066 136.914,137.206 135.948,136.724 136.018 C 136.656 136.028,135.610 136.759,134.400 137.642 M123.600 145.449 C 121.034 147.456,120.664 147.963,122.918 146.383 C 124.600 145.204,125.985 143.960,125.549 144.021 C 125.467 144.032,124.590 144.675,123.600 145.449 M115.200 152.034 L 113.400 153.665 115.300 152.184 C 116.966 150.886,117.459 150.397,117.100 150.401 C 117.045 150.402,116.190 151.136,115.200 152.034 M111.775 154.900 L 110.600 156.200 111.900 155.025 C 113.112 153.930,113.384 153.600,113.075 153.600 C 113.006 153.600,112.421 154.185,111.775 154.900 M105.381 160.500 L 103.800 162.200 105.500 160.619 C 107.081 159.148,107.384 158.800,107.081 158.800 C 107.016 158.800,106.251 159.565,105.381 160.500 M99.781 166.100 L 98.200 167.800 99.900 166.219 C 101.481 164.748,101.784 164.400,101.481 164.400 C 101.416 164.400,100.651 165.165,99.781 166.100 M93.278 174.500 C 92.091 176.240,90.897 178.379,91.337 177.975 C 91.765 177.584,94.791 172.800,94.610 172.800 C 94.516 172.800,93.916 173.565,93.278 174.500 M86.044 188.844 C 85.798 189.551,85.666 190.200,85.752 190.285 C 85.838 190.371,86.109 189.862,86.356 189.156 C 86.602 188.449,86.734 187.800,86.648 187.715 C 86.562 187.629,86.291 188.138,86.044 188.844 M84.436 193.636 C 84.166 194.539,84.018 195.352,84.108 195.442 C 84.198 195.532,84.493 194.866,84.764 193.964 C 85.034 193.061,85.182 192.248,85.092 192.158 C 85.002 192.068,84.707 192.734,84.436 193.636 M82.093 206.400 C 82.093 207.170,82.175 207.485,82.276 207.100 C 82.376 206.715,82.376 206.085,82.276 205.700 C 82.175 205.315,82.093 205.630,82.093 206.400 M81.720 213.600 C 81.720 214.810,81.795 215.305,81.887 214.700 C 81.978 214.095,81.978 213.105,81.887 212.500 C 81.795 211.895,81.720 212.390,81.720 213.600 M84.430 233.399 C 84.386 233.985,86.456 240.078,86.637 239.896 C 86.723 239.811,86.268 238.224,85.626 236.371 C 84.985 234.517,84.447 233.179,84.430 233.399 M92.029 251.100 C 92.521 251.925,93.184 252.870,93.502 253.200 C 93.820 253.530,93.507 252.855,92.806 251.700 C 92.105 250.545,91.442 249.600,91.333 249.600 C 91.224 249.600,91.537 250.275,92.029 251.100 M267.100 257.500 C 272.215 257.563,280.585 257.563,285.700 257.500 C 290.815 257.436,286.630 257.385,276.400 257.385 C 266.170 257.385,261.985 257.436,267.100 257.500 M97.200 258.525 C 97.200 258.594,97.785 259.179,98.500 259.825 L 99.800 261.000 98.625 259.700 C 97.530 258.488,97.200 258.216,97.200 258.525 M102.200 264.000 C 103.728 265.540,105.069 266.800,105.179 266.800 C 105.289 266.800,104.128 265.540,102.600 264.000 C 101.072 262.460,99.731 261.200,99.621 261.200 C 99.511 261.200,100.672 262.460,102.200 264.000 M110.000 270.546 C 110.000 270.656,110.540 271.130,111.200 271.600 C 111.860 272.070,112.400 272.364,112.400 272.254 C 112.400 272.144,111.860 271.670,111.200 271.200 C 110.540 270.730,110.000 270.436,110.000 270.546 M118.800 276.198 C 118.800 276.465,124.449 279.285,124.627 279.106 C 124.707 279.027,123.428 278.297,121.786 277.484 C 120.144 276.671,118.800 276.093,118.800 276.198 M126.000 279.766 C 126.550 280.060,127.450 280.412,128.000 280.549 C 128.550 280.686,128.280 280.452,127.400 280.029 C 125.590 279.158,124.468 278.948,126.000 279.766 M146.100 284.676 C 146.485 284.776,147.115 284.776,147.500 284.676 C 147.885 284.575,147.570 284.493,146.800 284.493 C 146.030 284.493,145.715 284.575,146.100 284.676 " stroke="none" fill="#8164be" fill-rule="evenodd"></path></g></svg>